<svg enable-background="new 0 0 267.1 151" viewBox="0 0 267.1 151" xmlns="http://www.w3.org/2000/svg"><g fill="none" stroke="#fff" stroke-width="3" transform="translate(-45 -144)"><g enable-background="new"><path d="m83.3 226.2-.1 11.9c-2.1-1-4.2-1.5-6.4-1.5-3.4 0-6.1.9-7.9 2.8s-2.7 4.5-2.7 7.8v22.8h-13v-31.1c0-4.6-.2-8.8-.7-12.5h12.2l.9 7.5c1.1-2.8 2.8-4.9 5.1-6.3 2.3-1.5 4.9-2.2 7.9-2.2 1.9 0 3.4.3 4.7.8z"/><path d="m130.1 226.4v43.6h-12.6v-6.4c-1.4 2.3-3.2 4-5.4 5.2s-4.8 1.8-7.6 1.8c-5.4 0-9.5-1.5-12.2-4.6-2.7-3-4-7.6-4-13.8v-26h13v26.2c0 5.3 2.3 7.9 6.8 7.9 2.7 0 4.9-.9 6.5-2.8 1.7-1.8 2.5-4.2 2.5-7.2v-24.2h13z"/><path d="m140.6 206.7h13v63.3h-13z"/><path d="m203.3 249.3h-28.7c.2 4.1 1.3 7 3.2 8.9s4.7 2.8 8.4 2.8c2.2 0 4.5-.4 6.7-1.1s4.3-1.8 6.2-3.3l3.4 8.8c-2.1 1.7-4.6 3-7.7 3.9s-6.1 1.4-9.2 1.4c-7.3 0-13.1-2-17.3-6.1-4.2-4-6.3-9.6-6.3-16.6 0-4.4.9-8.4 2.7-11.8 1.8-3.5 4.3-6.2 7.6-8.1s7-2.9 11.1-2.9c6.1 0 11 2 14.5 6 3.6 4 5.3 9.4 5.3 16.1v2zm-25.5-12.8c-1.5 1.4-2.5 3.5-3 6.3h17.3c-.7-5.6-3.5-8.4-8.3-8.4-2.5 0-4.5.7-6 2.1z"/><path d="m227 236.1v16.9c0 2.4.6 4.2 1.9 5.3s2.9 1.7 4.9 1.7c1.3 0 2.7-.2 4.3-.6v10.1c-2.1.8-4.6 1.2-7.5 1.2-5.4 0-9.5-1.5-12.3-4.6-2.8-3-4.3-7.3-4.3-12.8v-17.2h-8.3v-9.7h8.3v-10.2l13-4.2v14.4h11.1v9.7z"/><path d="m288.4 226.4v43.6h-12.8v-6.5c-1.3 2.2-3.2 4-5.6 5.2-2.4 1.3-5.1 1.9-8.2 1.9-3.8 0-7.1-.9-10-2.8-2.9-1.8-5.2-4.5-6.8-7.9s-2.5-7.4-2.5-11.8c0-4.5.8-8.5 2.5-12 1.6-3.5 3.9-6.2 6.8-8.1s6.2-2.9 10-2.9c3 0 5.8.7 8.2 2s4.3 3.1 5.6 5.3v-6.2h12.8zm-15.4 31.1c1.7-2.2 2.6-5.3 2.6-9.5s-.9-7.3-2.6-9.5-4.2-3.3-7.4-3.3-5.7 1.1-7.5 3.4-2.7 5.5-2.7 9.5c0 4.1.9 7.2 2.6 9.3s4.3 3.2 7.5 3.2c3.3.2 5.8-.9 7.5-3.1z"/></g><g enable-background="new"><path d="m54.3 165.5h10.6v51.5h-10.6z"/><path d="m109 181.5v35.5h-10.4v-5.3c-1.1 1.8-2.6 3.2-4.5 4.3-2 1-4.2 1.5-6.6 1.5-3.1 0-5.8-.7-8.2-2.2s-4.2-3.6-5.5-6.4-2-6-2-9.6.7-6.9 2-9.7 3.2-5.1 5.6-6.6 5.1-2.3 8.1-2.3c2.5 0 4.7.5 6.6 1.6 2 1.1 3.5 2.5 4.5 4.3v-5h10.4zm-12.5 25.3c1.4-1.8 2.1-4.3 2.1-7.7s-.7-5.9-2.1-7.7-3.4-2.7-6-2.7-4.6.9-6.1 2.8c-1.4 1.9-2.2 4.5-2.2 7.8s.7 5.8 2.1 7.6 3.5 2.6 6.1 2.6c2.7 0 4.7-.9 6.1-2.7z"/></g></g></svg>